<svg xmlns="http://www.w3.org/2000/svg" xmlns:xlink="http://www.w3.org/1999/xlink" viewBox="0,0,256,256" width="100px" height="100px"><g transform="translate(-19.2,-19.2) scale(1.15,1.15)"><g fill="#ffffff" fill-rule="nonzero" stroke="none" stroke-width="1" stroke-linecap="butt" stroke-linejoin="miter" stroke-miterlimit="10" stroke-dasharray="" stroke-dashoffset="0" font-family="none" font-weight="none" font-size="none" text-anchor="none" style="mix-blend-mode: normal"><path d="M79.8797,224.2406c-26.57611,0 -48.1203,-21.54419 -48.1203,-48.1203v-96.2406c0,-26.57611 21.54419,-48.1203 48.1203,-48.1203h96.2406c26.57611,0 48.1203,21.54419 48.1203,48.1203v96.2406c0,26.57611 -21.54419,48.1203 -48.1203,48.1203z" id="shape"></path></g><g fill="#000000" fill-rule="nonzero" stroke="none" stroke-width="1" stroke-linecap="butt" stroke-linejoin="miter" stroke-miterlimit="10" stroke-dasharray="" stroke-dashoffset="0" font-family="none" font-weight="none" font-size="none" text-anchor="none" style="mix-blend-mode: normal"><g transform="scale(5.12,5.12)"><path d="M46,13v24c0,4.962 -4.038,9 -9,9h-24c-4.962,0 -9,-4.038 -9,-9v-24c0,-4.962 4.038,-9 9,-9h24c4.962,0 9,4.038 9,9zM11.487,27.585c1.358,0 2.215,-0.716 2.215,-1.828c0,-0.809 -0.642,-1.455 -1.472,-1.499v-0.083c0.672,-0.092 1.182,-0.668 1.182,-1.349c0,-0.984 -0.747,-1.582 -2.013,-1.582h-2.958v6.341zM10.054,23.828h0.853c0.589,0 0.932,-0.272 0.932,-0.721c0,-0.453 -0.321,-0.725 -0.87,-0.725h-0.914v1.446zM11.029,26.447c0.668,0 1.033,-0.294 1.033,-0.831c0,-0.519 -0.374,-0.809 -1.042,-0.809h-0.967v1.639h0.976zM17.841,26.144c-0.105,0.286 -0.417,0.453 -0.87,0.453c-0.593,0 -0.958,-0.396 -0.971,-1.033v-0.079h3.292v-0.431c0,-1.56 -0.879,-2.474 -2.386,-2.474c-1.516,0 -2.435,0.98 -2.435,2.593c0,1.604 0.896,2.527 2.457,2.527c1.266,0 2.162,-0.602 2.333,-1.556zM16.008,24.592h1.775c-0.026,-0.571 -0.352,-0.91 -0.87,-0.91c-0.509,0.001 -0.865,0.357 -0.905,0.91zM22.011,25.366h0.835l1.085,2.219h1.811l-1.266,-2.457c0.694,-0.303 1.081,-1.015 1.081,-1.793c0,-1.31 -0.888,-2.092 -2.369,-2.092h-2.791v6.341h1.613v-2.218zM22.011,24.228h0.954c0.593,0 0.945,-0.33 0.945,-0.879c0,-0.541 -0.374,-0.888 -0.949,-0.888h-0.949v1.767zM29.662,26.144c-0.105,0.286 -0.417,0.453 -0.87,0.453c-0.593,0 -0.958,-0.396 -0.971,-1.033v-0.079h3.292v-0.431c0,-1.56 -0.879,-2.474 -2.386,-2.474c-1.516,0 -2.435,0.98 -2.435,2.593c0,1.604 0.896,2.527 2.457,2.527c1.266,0 2.162,-0.602 2.333,-1.556zM27.83,24.592h1.775c-0.026,-0.571 -0.352,-0.91 -0.87,-0.91c-0.51,0.001 -0.866,0.357 -0.905,0.91zM33.411,27.66c0.62,0 1.156,-0.264 1.375,-0.681h0.083v0.606h1.512v-3.335c0,-1.055 -0.769,-1.67 -2.118,-1.67c-1.323,0 -2.188,0.589 -2.259,1.538h1.397c0.101,-0.259 0.365,-0.396 0.773,-0.396c0.431,0 0.677,0.198 0.677,0.527v0.382l-1.068,0.062c-1.261,0.075 -1.956,0.593 -1.956,1.485c0.002,0.897 0.643,1.482 1.584,1.482zM34.852,25.827v-0.321l-0.822,0.053c-0.461,0.035 -0.703,0.215 -0.703,0.51c0,0.312 0.259,0.505 0.65,0.505c0.493,0 0.875,-0.325 0.875,-0.747zM37.608,27.585h1.551v-6.724h-1.551zM41.055,27.73c0.558,0 0.888,-0.343 0.888,-0.835c0,-0.497 -0.33,-0.839 -0.888,-0.839c-0.554,0 -0.883,0.343 -0.883,0.839c0,0.492 0.329,0.835 0.883,0.835z"></path></g></g></g></svg>